<?xml version="1.0" standalone="no"?><!DOCTYPE svg PUBLIC "-//W3C//DTD SVG 1.1//EN" "http://www.w3.org/Graphics/SVG/1.1/DTD/svg11.dtd"><svg class="icon" height="512" viewBox="0 0 1030 1024" version="1.1" xmlns="http://www.w3.org/2000/svg"><path d="M613.006803 515.482993l397.061224-397.061224c27.863946-27.863946 27.863946-69.659864 0-97.52381-27.863946-27.863946-69.659864-27.863946-97.523809 0L515.482993 410.993197 118.421769 20.897959C90.557823-6.965986 48.761905-6.965986 20.897959 20.897959c-27.863946 27.863946-27.863946 69.659864 0 97.52381L417.959184 515.482993 20.897959 905.578231c-27.863946 27.863946-27.863946 69.659864 0 97.52381 27.863946 27.863946 69.659864 27.863946 97.52381 0l397.061224-397.061225 397.061225 397.061225c27.863946 27.863946 69.659864 27.863946 97.523809 0 27.863946-27.863946 27.863946-69.659864 0-97.52381L613.006803 515.482993z" fill="#FF6B6B" /></svg>